<svg width="292" height="116" viewBox="0 0 292 116" fill="none" xmlns="http://www.w3.org/2000/svg">
<rect width="292" height="116" fill="black" fill-opacity="0" transform="translate(292) scale(-1 1)"/>
<rect width="292" height="116" fill="black" fill-opacity="0" transform="translate(292) scale(-1 1)"/>
<path d="M38.9922 80L38.9922 6L279.992 6L279.992 80L38.9922 80Z" stroke="#F6CF03" stroke-width="12"/>
<path d="M34.0441 -8.40711e-08L42.946 8.92827L8.90198 39.3296L-7.85441e-08 30.4013L34.0441 -8.40711e-08Z" fill="url(#paint0_linear)"/>
<path d="M276.929 76.6699L285.831 85.5982L251.787 116L242.885 107.071L276.929 76.6699Z" fill="url(#paint1_linear)"/>
<path d="M34.0435 76.5117L42.9455 85.44L10.5856 115.841L1.68359 106.913L34.0435 76.5117Z" fill="url(#paint2_linear)"/>
<mask id="mask0" mask-type="alpha" maskUnits="userSpaceOnUse" x="52" y="20" width="215" height="45">
<path d="M80.2302 32.506C79.3022 31.5007 78.2969 30.7273 77.2142 30.186C76.1702 29.6447 74.6429 29.374 72.6322 29.374C70.6216 29.374 69.1329 29.664 68.1662 30.244C67.1996 30.824 66.7162 31.52 66.7162 32.332C66.7162 33.724 67.9536 34.71 70.4282 35.29L80.0562 37.784C83.5749 38.6733 86.2236 40.2393 88.0022 42.482C89.7809 44.686 90.6702 47.3347 90.6702 50.428C90.6702 53.2893 89.9162 55.7833 88.4082 57.91C86.9002 60.0367 84.7349 61.68 81.9122 62.84C79.1282 64 75.8609 64.58 72.1102 64.58C67.8569 64.58 63.9709 63.884 60.4522 62.492C56.9722 61.0613 54.5556 59.2053 53.2022 56.924C53.0089 56.5373 52.9122 56.2473 52.9122 56.054C52.9122 55.6673 53.1249 55.3193 53.5502 55.01L59.5242 50.892C59.9496 50.6213 60.3362 50.486 60.6842 50.486C61.1096 50.486 61.4576 50.66 61.7282 51.008C63.0429 52.7093 64.3769 53.908 65.7302 54.604C67.0836 55.3 68.8816 55.648 71.1242 55.648C73.2896 55.648 74.9909 55.358 76.2282 54.778C77.5042 54.1593 78.1422 53.328 78.1422 52.284C78.1422 51.5493 77.8329 50.9113 77.2142 50.37C76.5956 49.8287 75.6869 49.4227 74.4882 49.152L65.6722 47.006C62.1922 46.1553 59.4276 44.57 57.3782 42.25C55.3289 39.8913 54.3042 37.1847 54.3042 34.13C54.3042 31.6167 55.0389 29.316 56.5082 27.228C57.9776 25.1013 60.0656 23.4387 62.7722 22.24C65.4789 21.0027 68.6109 20.384 72.1682 20.384C75.6482 20.384 78.8769 20.964 81.8542 22.124C84.8316 23.2453 86.9776 24.7533 88.2922 26.648C88.5629 26.996 88.6982 27.3247 88.6982 27.634C88.6982 27.9047 88.5629 28.156 88.2922 28.388L81.9702 32.97C81.7769 33.1247 81.5642 33.202 81.3322 33.202C81.0616 33.202 80.6942 32.97 80.2302 32.506ZM98.5102 64C97.9689 64 97.5822 63.9033 97.3502 63.71C97.1182 63.478 97.0022 63.0913 97.0022 62.55V22.298C97.0022 21.8727 97.0989 21.544 97.2922 21.312C97.4855 21.08 97.7562 20.964 98.1042 20.964H107.384C108.08 20.964 108.428 21.37 108.428 22.182V36.624C108.428 36.9333 108.525 37.088 108.718 37.088C108.873 37.088 109.028 37.0107 109.182 36.856C110.768 35.348 112.295 34.2847 113.764 33.666C115.272 33.0087 116.838 32.68 118.462 32.68C121.324 32.68 123.547 33.5113 125.132 35.174C126.718 36.8367 127.51 39.1953 127.51 42.25V62.26C127.51 63.42 126.93 64 125.77 64H117.244C116.742 64 116.394 63.9033 116.2 63.71C116.007 63.478 115.91 63.0913 115.91 62.55V43.642C115.91 42.7913 115.64 42.1147 115.098 41.612C114.557 41.1093 113.822 40.858 112.894 40.858C111.116 40.858 109.685 41.8247 108.602 43.758V62.318C108.602 62.9367 108.448 63.3813 108.138 63.652C107.868 63.884 107.384 64 106.688 64H98.5102ZM145.981 29.026C145.981 29.606 145.827 30.0313 145.517 30.302C145.208 30.5727 144.725 30.708 144.067 30.708H135.889C135.348 30.708 134.961 30.592 134.729 30.36C134.497 30.0893 134.381 29.7027 134.381 29.2V22.298C134.381 21.4087 134.749 20.964 135.483 20.964H144.937C145.247 20.964 145.498 21.08 145.691 21.312C145.885 21.5053 145.981 21.7953 145.981 22.182V29.026ZM145.981 62.318C145.981 62.9367 145.827 63.3813 145.517 63.652C145.208 63.884 144.725 64 144.067 64H135.889C135.309 64 134.903 63.884 134.671 63.652C134.478 63.42 134.381 63.0527 134.381 62.55V34.594C134.381 33.7047 134.749 33.26 135.483 33.26H144.937C145.247 33.26 145.498 33.376 145.691 33.608C145.885 33.8013 145.981 34.072 145.981 34.42V62.318ZM172.443 33.26C172.907 33.26 173.255 33.376 173.487 33.608C173.757 33.84 173.893 34.1493 173.893 34.536V39.988C173.893 40.7227 173.467 41.09 172.617 41.09H169.021C168.557 41.09 168.325 41.322 168.325 41.786V62.724C168.325 63.5747 167.957 64 167.223 64H157.769C157.073 64 156.725 63.6133 156.725 62.84V41.67C156.725 41.2833 156.57 41.09 156.261 41.09H153.013C152.162 41.09 151.737 40.7227 151.737 39.988V34.536C151.737 34.1493 151.853 33.84 152.085 33.608C152.317 33.376 152.665 33.26 153.129 33.26H155.913C156.222 33.26 156.435 33.1827 156.551 33.028C156.667 32.8733 156.725 32.6027 156.725 32.216V29.142C156.725 26.6287 157.537 24.6373 159.161 23.168C160.823 21.6987 163.066 20.964 165.889 20.964H172.443C172.984 20.964 173.39 21.0993 173.661 21.37C173.97 21.6407 174.125 22.008 174.125 22.472L174.183 27.344C174.183 27.692 174.086 27.982 173.893 28.214C173.738 28.4073 173.487 28.504 173.139 28.504H170.645C169.949 28.504 169.33 28.794 168.789 29.374C168.286 29.954 168.035 30.65 168.035 31.462V32.506C168.035 33.0087 168.286 33.26 168.789 33.26H172.443ZM195.699 41.09C195.196 41.09 194.945 41.3413 194.945 41.844V52.98C194.945 54.024 195.273 54.7973 195.931 55.3C196.588 55.8027 197.613 56.054 199.005 56.054H201.499C201.808 56.054 202.059 56.17 202.253 56.402C202.446 56.634 202.543 56.9047 202.543 57.214L202.485 61.854C202.485 62.782 201.924 63.362 200.803 63.594C198.831 63.8647 196.221 64 192.973 64C190.111 64 187.791 63.3233 186.013 61.97C184.234 60.6167 183.345 58.722 183.345 56.286V42.134C183.345 41.7473 183.287 41.4767 183.171 41.322C183.055 41.1673 182.823 41.09 182.475 41.09H179.691C178.763 41.09 178.299 40.6647 178.299 39.814V34.362C178.299 33.6273 178.724 33.26 179.575 33.26H182.997C183.422 33.26 183.654 33.028 183.693 32.564L184.621 23.98C184.698 23.2067 185.046 22.82 185.665 22.82H194.191C194.5 22.82 194.751 22.936 194.945 23.168C195.177 23.4 195.293 23.7093 195.293 24.096V32.564C195.293 32.9893 195.505 33.202 195.931 33.202H201.267C202.117 33.202 202.543 33.5693 202.543 34.304V39.814C202.543 40.2007 202.407 40.51 202.137 40.742C201.905 40.974 201.557 41.09 201.093 41.09H195.699ZM218.399 51.704C218.399 53.4053 218.94 54.7007 220.023 55.59C221.144 56.4793 222.594 56.924 224.373 56.924C225.417 56.924 226.422 56.692 227.389 56.228C228.356 55.7253 229.458 54.8747 230.695 53.676C230.85 53.5213 231.004 53.444 231.159 53.444C231.314 53.444 231.565 53.502 231.913 53.618L237.191 55.764C237.539 55.88 237.713 56.112 237.713 56.46C237.713 56.692 237.616 56.924 237.423 57.156C235.412 59.9787 233.305 61.9313 231.101 63.014C228.936 64.058 226.171 64.58 222.807 64.58C219.752 64.58 216.968 63.9227 214.455 62.608C211.98 61.2933 210.028 59.476 208.597 57.156C207.166 54.7973 206.451 52.1293 206.451 49.152C206.451 45.9427 207.186 43.1007 208.655 40.626C210.124 38.1127 212.096 36.16 214.571 34.768C217.046 33.376 219.714 32.68 222.575 32.68C225.63 32.68 228.336 33.3373 230.695 34.652C233.092 35.9667 234.968 37.8807 236.321 40.394C237.674 42.8687 238.351 45.8267 238.351 49.268C238.351 49.8093 238.293 50.1767 238.177 50.37C238.061 50.5633 237.771 50.6793 237.307 50.718H219.269C218.689 50.718 218.399 51.0467 218.399 51.704ZM226.113 44.744C226.5 44.744 226.751 44.7053 226.867 44.628C227.022 44.512 227.099 44.28 227.099 43.932C227.099 42.9653 226.751 41.9793 226.055 40.974C225.359 39.9687 224.373 39.466 223.097 39.466C221.821 39.466 220.738 39.9107 219.849 40.8C218.96 41.6893 218.534 42.9847 218.573 44.686L226.113 44.744ZM245.65 64C245.07 64 244.664 63.884 244.432 63.652C244.239 63.42 244.142 63.0527 244.142 62.55V34.594C244.142 33.7047 244.509 33.26 245.244 33.26H254.292C254.601 33.26 254.853 33.376 255.046 33.608C255.239 33.8013 255.336 34.072 255.336 34.42V37.668C255.336 38.016 255.471 38.19 255.742 38.19C255.935 38.19 256.129 38.074 256.322 37.842C257.25 36.4113 258.545 35.1933 260.208 34.188C261.871 33.1827 263.379 32.68 264.732 32.68C266.163 32.68 266.878 33.0667 266.878 33.84V42.656C266.878 43.0427 266.762 43.3133 266.53 43.468C266.337 43.6227 266.066 43.6613 265.718 43.584C264.055 43.1587 262.393 42.946 260.73 42.946C259.454 42.946 258.294 43.352 257.25 44.164C256.245 44.976 255.742 45.8847 255.742 46.89V62.318C255.742 62.9367 255.587 63.3813 255.278 63.652C254.969 63.884 254.485 64 253.828 64H245.65Z" fill="white"/>
</mask>
<g mask="url(#mask0)">
<rect x="795.365" y="-59.707" width="926.009" height="500.487" transform="scale(-1 1)" fill="black"/>
</g>
<defs>
<linearGradient id="paint0_linear" x1="5.48144" y1="34.1036" x2="35.4126" y2="0.943721" gradientUnits="userSpaceOnUse">
<stop stop-color="#F6CF03" stop-opacity="0"/>
<stop offset="0.944751" stop-color="#F6CF03"/>
<stop offset="0.994475" stop-color="#F6CF03"/>
</linearGradient>
<linearGradient id="paint1_linear" x1="248.366" y1="110.774" x2="278.297" y2="77.6136" gradientUnits="userSpaceOnUse">
<stop stop-color="#F6CF03" stop-opacity="0"/>
<stop offset="0.944751" stop-color="#F6CF03"/>
<stop offset="0.994475" stop-color="#F6CF03"/>
</linearGradient>
<linearGradient id="paint2_linear" x1="6.95008" y1="110.615" x2="36.9799" y2="78.6508" gradientUnits="userSpaceOnUse">
<stop stop-color="#F6CF03" stop-opacity="0"/>
<stop offset="0.944751" stop-color="#F6CF03"/>
<stop offset="0.994475" stop-color="#F6CF03"/>
</linearGradient>
</defs>
</svg>
